<?xml version="1.0" encoding="UTF-8" standalone="no"?>
<!DOCTYPE svg PUBLIC "-//W3C//DTD SVG 1.1//EN" "http://www.w3.org/Graphics/SVG/1.1/DTD/svg11.dtd">
<svg width="100%" height="100%" viewBox="0 0 402 374" version="1.1" xmlns="http://www.w3.org/2000/svg" xmlns:xlink="http://www.w3.org/1999/xlink" xml:space="preserve" xmlns:serif="http://www.serif.com/" style="fill-rule:evenodd;clip-rule:evenodd;stroke-linejoin:round;stroke-miterlimit:2;">
    <g transform="matrix(1,0,0,1,-99.699889,-77.572008)">
        <g transform="matrix(0.7058,0,0,0.751344,-563.526768,-83.932754)">
            <g id="DarkBlue-Logo" serif:id="DarkBlue Logo" transform="matrix(12.305029,0,0,10.310175,-9297.89483,-6378.233612)">
                <g transform="matrix(1,0,0,1,839.425,645.472)">
                    <path d="M0,17.978L0,2.426L-2.108,3.675L-2.108,1.776L0.493,0L1.752,0L1.752,17.978L0,17.978Z" style="fill:rgb(194,255,11);fill-rule:nonzero;"/>
                </g>
                <g transform="matrix(1,0,0,1,852.204,681.816)">
                    <path d="M0,-18.259L-0.301,-16.583C0.324,-16.15 0.645,-15.268 0.645,-13.913L0.645,-4.629C0.645,-2.368 -0.067,-1.56 -1.408,-1.56C-2.026,-1.56 -2.53,-1.754 -2.888,-2.193L-3.227,-0.308C-2.749,-0.106 -2.174,0 -1.49,0C1.137,0 2.424,-1.587 2.424,-4.682L2.424,-13.887C2.424,-16.059 1.693,-17.705 0,-18.259" style="fill:rgb(194,255,11);fill-rule:nonzero;"/>
                </g>
                <g transform="matrix(1,0,0,1,863.853,668.71)">
                    <path d="M0,7.751L0,8.343C0,10.685 -0.438,13.107 -3.613,13.107C-6.734,13.107 -7.227,10.873 -7.227,8.235L-7.227,-0.915C-7.227,-3.822 -5.967,-5.356 -3.586,-5.356C-0.602,-5.356 -0.082,-3.229 -0.082,-0.915L-0.082,-0.215L-1.861,-0.215L-1.861,-0.996C-1.861,-2.476 -2.08,-3.795 -3.613,-3.795C-5.091,-3.795 -5.447,-2.61 -5.447,-0.942L-5.447,8.343C-5.447,10.281 -5.009,11.546 -3.558,11.546C-2.026,11.546 -1.779,10.227 -1.779,8.451L-1.779,7.751L0,7.751Z" style="fill:rgb(194,255,11);fill-rule:nonzero;"/>
                </g>
                <g transform="matrix(1,0,0,1,867.739,679.986)">
                    <path d="M0,-14.802L-2.984,-14.802L-2.984,-16.39L4.681,-16.39L4.681,-14.802L1.724,-14.802L1.724,1.588L0,1.588L0,-14.802Z" style="fill:rgb(194,255,11);fill-rule:nonzero;"/>
                </g>
                <g transform="matrix(1,0,0,1,844.579,663.45)">
                    <path d="M0,-17.978L1.259,-9.743C1.67,-7.213 2.272,-4.01 2.436,-2.207C2.573,-3.956 3.175,-7.159 3.559,-9.662L4.872,-17.978L6.734,-17.978L3.504,0L1.314,0L-1.889,-17.978L0,-17.978Z" style="fill:rgb(194,255,11);fill-rule:nonzero;"/>
                </g>
                <g transform="matrix(0.174967,-0.984574,-0.984574,-0.174967,873.445,672.913)">
                    <path d="M-19.469,24.991L29.512,24.991L29.824,23.234L-19.15,23.199L-19.469,24.991Z" style="fill:rgb(194,255,11);fill-rule:nonzero;"/>
                </g>
                <g transform="matrix(1,0,0,1,845.122,641.233)">
                    <path d="M0,44.776L-6.625,44.776C-9.294,44.776 -11.465,42.508 -11.465,39.72L-11.465,5.056C-11.465,2.268 -9.294,0 -6.625,0L7.957,0L8.268,-1.749L-6.625,-1.749C-10.217,-1.749 -13.139,1.304 -13.139,5.056L-13.139,39.72C-13.139,43.472 -10.217,46.525 -6.625,46.525L-0.311,46.525L0,44.776Z" style="fill:rgb(194,255,11);fill-rule:nonzero;"/>
                </g>
                <g transform="matrix(1,0,0,1,871.674,687.759)">
                    <path d="M0,-48.275L-15.316,-48.275L-15.625,-46.526L0,-46.526C2.668,-46.526 4.839,-44.258 4.839,-41.47L4.839,-6.806C4.839,-4.018 2.668,-1.75 0,-1.75L-23.55,-1.75L-23.86,0L0,0C3.591,0 6.513,-3.053 6.513,-6.806L6.513,-41.47C6.513,-45.222 3.591,-48.275 0,-48.275" style="fill:rgb(194,255,11);fill-rule:nonzero;"/>
                </g>
            </g>
        </g>
    </g>
</svg>
